<mxfile host="Electron" modified="2024-08-27T15:02:04.566Z" agent="Mozilla/5.0 (Windows NT 10.0; Win64; x64) AppleWebKit/537.36 (KHTML, like Gecko) draw.io/21.2.1 Chrome/112.0.5615.87 Electron/24.1.2 Safari/537.36" etag="Sj36CpxShMKKYJUGTWBq" version="21.2.1" type="device">
  <diagram name="第 1 页" id="xPd4fUFVsVLFMCgHRc--">
    <mxGraphModel dx="924" dy="558" grid="1" gridSize="10" guides="1" tooltips="1" connect="1" arrows="1" fold="1" page="1" pageScale="1" pageWidth="827" pageHeight="1169" math="0" shadow="0">
      <root>
        <mxCell id="0" />
        <mxCell id="1" parent="0" />
        <mxCell id="uvwBHMcBSgrnhqvyi07T-1" value="将格式化的字符串写入 &lt;code&gt;buffer&lt;/code&gt; 中的特定位置，&lt;br&gt;同时防止缓冲区溢出" style="rounded=0;whiteSpace=wrap;html=1;" vertex="1" parent="1">
          <mxGeometry x="360" y="350" width="290" height="50" as="geometry" />
        </mxCell>
        <mxCell id="uvwBHMcBSgrnhqvyi07T-3" value="计算当前时间信息" style="rounded=0;whiteSpace=wrap;html=1;" vertex="1" parent="1">
          <mxGeometry x="422.5" y="280" width="165" height="40" as="geometry" />
        </mxCell>
        <mxCell id="uvwBHMcBSgrnhqvyi07T-4" value="" style="endArrow=classic;html=1;rounded=0;exitX=0.5;exitY=1;exitDx=0;exitDy=0;" edge="1" parent="1" source="uvwBHMcBSgrnhqvyi07T-3" target="uvwBHMcBSgrnhqvyi07T-1">
          <mxGeometry width="50" height="50" relative="1" as="geometry">
            <mxPoint x="670" y="450" as="sourcePoint" />
            <mxPoint x="720" y="400" as="targetPoint" />
          </mxGeometry>
        </mxCell>
        <mxCell id="uvwBHMcBSgrnhqvyi07T-16" value="" style="endArrow=classic;html=1;rounded=0;exitX=0.5;exitY=1;exitDx=0;exitDy=0;" edge="1" parent="1">
          <mxGeometry width="50" height="50" relative="1" as="geometry">
            <mxPoint x="504.83" y="400" as="sourcePoint" />
            <mxPoint x="504.83" y="430" as="targetPoint" />
          </mxGeometry>
        </mxCell>
        <mxCell id="uvwBHMcBSgrnhqvyi07T-18" value="开始" style="rounded=1;whiteSpace=wrap;html=1;" vertex="1" parent="1">
          <mxGeometry x="445" y="140" width="120" height="40" as="geometry" />
        </mxCell>
        <mxCell id="uvwBHMcBSgrnhqvyi07T-19" value="结束" style="rounded=1;whiteSpace=wrap;html=1;" vertex="1" parent="1">
          <mxGeometry x="455" y="820" width="100" height="50" as="geometry" />
        </mxCell>
        <mxCell id="uvwBHMcBSgrnhqvyi07T-20" value="获取时间信息" style="rounded=0;whiteSpace=wrap;html=1;" vertex="1" parent="1">
          <mxGeometry x="422.5" y="210" width="165" height="40" as="geometry" />
        </mxCell>
        <mxCell id="uvwBHMcBSgrnhqvyi07T-21" value="结束" style="rounded=1;whiteSpace=wrap;html=1;" vertex="1" parent="1">
          <mxGeometry x="445" y="430" width="120" height="40" as="geometry" />
        </mxCell>
        <mxCell id="uvwBHMcBSgrnhqvyi07T-22" value="" style="endArrow=classic;html=1;rounded=0;exitX=0.5;exitY=1;exitDx=0;exitDy=0;" edge="1" parent="1" source="uvwBHMcBSgrnhqvyi07T-20" target="uvwBHMcBSgrnhqvyi07T-3">
          <mxGeometry width="50" height="50" relative="1" as="geometry">
            <mxPoint x="515" y="330" as="sourcePoint" />
            <mxPoint x="515" y="360" as="targetPoint" />
          </mxGeometry>
        </mxCell>
        <mxCell id="uvwBHMcBSgrnhqvyi07T-23" value="" style="endArrow=classic;html=1;rounded=0;exitX=0.5;exitY=1;exitDx=0;exitDy=0;" edge="1" parent="1" source="uvwBHMcBSgrnhqvyi07T-18" target="uvwBHMcBSgrnhqvyi07T-20">
          <mxGeometry width="50" height="50" relative="1" as="geometry">
            <mxPoint x="525" y="340" as="sourcePoint" />
            <mxPoint x="525" y="370" as="targetPoint" />
          </mxGeometry>
        </mxCell>
      </root>
    </mxGraphModel>
  </diagram>
</mxfile>
